<svg class="icon icon-phoenix-crest" xmlns="http://www.w3.org/2000/svg" width="32" height="32" viewBox="0 0 33 32" aria-labelledby="title"><title id="title">Phoenix Crest</title><path style="fill:#ff6a13" d="M16.674 10.48c2.324 0.001 4.454 0.834 6.108 2.217l-0.015-0.012 0.977-1.112c-1.893-1.608-4.366-2.586-7.066-2.586-2.575 0-4.942 0.889-6.811 2.376l0.022-0.017 0.987 1.108c1.588-1.23 3.607-1.972 5.801-1.972 0.001 0 0.002 0 0.002 0h-0z"></path><path style="fill:#ff6a13" d="M16.674 30.503c-4.871 0-8.906-3.679-9.622-8.482l-0.192-0.084c-0.529-0.234-0.981-0.545-1.365-0.924l0.001 0.001c0.265 6.114 5.169 10.982 11.178 10.982 6.028 0 10.942-4.907 11.181-11.043-0.446 0.443-0.963 0.815-1.531 1.099l-0.034 0.016c-0.737 4.778-4.761 8.432-9.614 8.432z"></path><path style="fill:#ff6a13" d="M30.894 13.323c-1.051 0.29-2.161 0.655-2.63 0.967-0.082 0.054-0.162 0.11-0.242 0.167 0.141-0.193 0.287-0.381 0.443-0.562 0.104-0.117 0.213-0.242 0.324-0.36 0.083-0.088 0.169-0.172 0.258-0.252 0.089-0.083 0.185-0.162 0.285-0.235l0.009-0.006c0.064-0.046 1.153-0.853 1.228-0.918s0.147-0.131 0.223-0.193c0.394-0.315 0.737-0.667 1.033-1.058l0.011-0.015c0.351-0.467 0.578-1.022 0.807-1.559 0.088-0.203 0.234-0.543 0.218-0.765-0.155 0.278-0.518 0.509-0.665 0.584-0.187 0.094-0.403 0.163-0.632 0.194l-0.011 0.001c-0.616 0.085-0.519-0.676-0.152-1.292 0.048-0.082 0.094-0.15 0.143-0.216l-0.005 0.007c0.436-0.595 0.799-1.281 1.055-2.018l0.016-0.055c0.345-0.947 0.733-2.167 0.737-3.222 0-0.75-0.224-1.413-0.584-2.075-0.056-0.104-0.216-0.306-0.242-0.45 0.020 0.126 0.093 0.35 0.098 0.486 0.065 2.103-2.356 4.333-2.909 5.024l-11.449 13.034-0.429-1.913c-0.001-0.009-0.002-0.019-0.002-0.029 0-0.081 0.048-0.151 0.118-0.181l0.001-0c0.053-0.023 0.114-0.037 0.179-0.037 0.041 0 0.080 0.005 0.117 0.015l-0.003-0.001c0.093 0.028 0.173 0.068 0.246 0.119l-0.003-0.002c0.063 0.043 0.137 0.079 0.215 0.104l0.006 0.002c0.038 0.014 0.082 0.023 0.128 0.023h0c-0.062-0.029-0.115-0.069-0.159-0.116l-0-0c-0.101-0.102-0.19-0.217-0.264-0.342l-0.005-0.008c-0.046-0.069-0.376-0.518-0.451-0.612-0.117-0.153-0.171-0.228-0.255-0.351-0.076-0.102-0.167-0.188-0.269-0.257l-0.004-0.002c-0.1-0.072-0.217-0.127-0.344-0.158l-0.007-0.001c-0.040-0.013-0.086-0.021-0.134-0.021h-0.416c-0.092-0.077-0.194-0.154-0.3-0.225l-0.013-0.008c-0.129-0.098-0.282-0.172-0.448-0.213l-0.009-0.002c-0.167-0.026-0.299-0.057-0.457 0.030-0.098 0.043-0.18 0.106-0.244 0.184l-0.001 0.001c-0.067 0.087-0.122 0.188-0.16 0.297l-0.002 0.008c0.092-0.042 0.199-0.067 0.312-0.067 0.004 0 0.009 0 0.013 0h-0.001c0.115 0.028 0.214 0.087 0.289 0.169l0 0c0.096 0.083 0.277 0.278 0.284 0.284l0.182 0.584-0.516 2.483-13.176-14.781c-0.827-0.954-1.636-1.827-1.601-3.133 0.016-0.146 0.038-0.276 0.069-0.402l-0.004 0.022c-0.031 0.137-0.081 0.259-0.148 0.369l0.003-0.005c-0.357 0.659-0.602 1.383-0.601 2.119 0 1.042 0.391 2.111 0.737 3.062 0.272 0.791 0.634 1.477 1.086 2.095l-0.015-0.022c0.57 0.762 0.748 2.005-0.546 1.304-0.146-0.079-0.633-0.52-0.776-0.584 0.117 0.527 0.132 0.562 0.218 0.765 0.234 0.536 0.459 1.090 0.807 1.559 0.654 0.87 2.897 2.557 3.755 3.519l0.058 0.077c-0.161-0.123-0.341-0.24-0.532-0.34l-0.021-0.010c-0.407-0.202-0.884-0.38-1.381-0.506l-0.051-0.011c-1.217-0.317-2.539-0.49-3.24-1.651-0.034-0.072-0.068-0.158-0.096-0.248l-0.004-0.014c0.037 0.099-0.007 0.234 0 0.324 0.105 1.359 2.111 3.434 3.637 4.026 1.041 0.403 1.271 0.928 0.186 1.042-0.078 0.010-0.169 0.016-0.261 0.016-0.162 0-0.32-0.018-0.472-0.053l0.014 0.003c0.077 0.146 0.308 0.293 0.444 0.382 0.359 0.234 1.221 0.625 2.209 0.847s2.103 0.756 3.052 1.498c0.081 0.063 0.033 0.021 0.242 0.192-1.569-0.678-3.185 0.335-4.123-0.741-0.044-0.063-0.088-0.135-0.127-0.21l-0.005-0.011c0.044 0.084 0.082 0.182 0.109 0.285l0.002 0.010c0.379 1.27 1.209 1.993 2.153 2.417 0.617 0.305 1.334 0.516 2.092 0.593l0.026 0.002c0.921 0.086 2.943-0.435 2.927 0.186 0 0.14-0.477 0.211-0.741 0.424-0.293 0.277-0.481 0.661-0.503 1.088l-0 0.004c0.039-0.467 0.872-0.375 1.175-0.38 0.782-0.013 1.493-0.292 2.157-0.676 0.405 0.945 0.351 2.644-0.367 3.010-0.219-0.191-0.377-0.448-0.444-0.738l-0.002-0.009c-0.091-0.351 0.117-0.66-0.117-0.972 0.075 0.304-0.176 0.584-0.325 0.789-0.306 0.424-0.117 0.818 0 1.285 0.047 0.18 0.476 1.051 0.201 1.179s-0.754-0.319-0.721-0.681c-0.146 0.259 0.095 0.846 0.202 1.001 0.319 0.46 0.609 0.811 1.168 0.949 0.264 0.064 0.584 0.008 0.701 0.065 0.050 0.025 0.093 0.042 0.103 0.046 0-0.014-0.041-0.164-0.046-0.176-0.071-0.203-0.174-0.418-0.162-0.639 0.027-0.48 0.624-0.651 0.747-1.089 0-0.013 0.008-0.025 0.011-0.037l-0.008 0.037c-0.063 0.233-0.117 0.518-0.151 0.808l-0.003 0.030c-0.016 0.223 0.234 0.672 0.404 0.331 0.135-0.255 0.215-0.557 0.215-0.877 0-0.084-0.005-0.166-0.016-0.247l0.001 0.010c-0.018-0.088-0.046-0.166-0.082-0.239l0.003 0.006c-0.046-0.087-0.083-0.188-0.104-0.294l-0.001-0.007c-0.003-0.032-0.004-0.070-0.004-0.108 0-0.186 0.037-0.364 0.105-0.525l-0.003 0.009c0.084-0.241 0.245-0.457 0.329-0.695-0.063 0.178-0.084 0.645 0.147 1.115 0.021 0.042 0.042 0.084 0.068 0.126 0.209 0.351 0.131 0.624 0.2 1.025 0.169-0.388 0.36-0.825 0.405-1.252 0.036-0.351-0.103-0.654-0.234-0.964-0.041-0.102-0.081-0.203-0.117-0.307-0.161-0.529 0.060-0.837 0.27-1.303 0.096-0.213 0.251-0.429 0.248-0.672 0.158 0.606-0.128 1.252 0.057 1.861 0.046 0.139 0.101 0.258 0.168 0.37l-0.005-0.008c0.047 0.083 0.416 0.491 0.52 0.624 0.063 0.079 0.113 0.172 0.142 0.274l0.001 0.006c0.013 0.038 0.023 0.084 0.030 0.13l0 0.004c0 0.048 0 0.097 0 0.145s0 0.117 0 0.174c-0.002 0.034-0.003 0.074-0.003 0.114 0 0.107 0.007 0.212 0.020 0.315l-0.001-0.012c0.022 0.148 0.202 0.477 0.381 0.334 0.083-0.091 0.144-0.204 0.171-0.329l0.001-0.005c0.018-0.058 0.033-0.117 0.047-0.158 0.088-0.279 0.097-0.584 0.208-0.858 0.117 0.36 0.201 0.779 0.233 1.212l0.001 0.018c0.004 0.048 0.006 0.104 0.006 0.161 0 0.139-0.013 0.275-0.037 0.407l0.002-0.014c-0.061 0.302-0.152 0.57-0.272 0.821l0.009-0.021c0.046 0.020 0.1 0.031 0.157 0.031s0.11-0.011 0.159-0.032l-0.003 0.001c0.133-0.116 0.253-0.237 0.365-0.365l0.004-0.004c0.022-0.020 0.046-0.039 0.071-0.057l0.003-0.002c0.052-0.043 0.112-0.079 0.176-0.108l0.005-0.002c0.048-0.012 0.090-0.027 0.129-0.045l-0.004 0.002c-0.074 0.111-0.189 0.188-0.203 0.335s0.039 0.268 0.020 0.4c-0.008 0.061-0.025 0.116-0.048 0.167l0.002-0.004c0.145-0.005 0.282-0.026 0.413-0.063l-0.012 0.003c0.567-0.133 1.033-0.736 1.168-0.949 0.154-0.234 0.335-0.714 0.202-1.001-0.009 0.294-0.453 0.807-0.721 0.681s0.025-0.596 0.070-0.776c0.117-0.467 0.306-0.995 0-1.418-0.148-0.206-0.4-0.888-0.325-1.192-0.234 0.313-0.147 0.761-0.254 1.106-0.068 0.22-0.078 0.261-0.315 0.479-0.641-0.328-0.688-1.595-0.375-2.483 0.485 0.245 1.055 0.397 1.658 0.417l0.007 0c0.304 0 1.137-0.088 1.175 0.38-0.006-0.396-0.224-0.965-0.498-1.16s-0.761-0.217-0.747-0.358c0.054-0.528 1.456 0.020 1.953 0.032 0.025 0 0.055 0 0.085 0 1.128 0 2.204-0.222 3.187-0.625l-0.056 0.020c0.944-0.424 2.103-1.285 2.484-2.559 0.029-0.113 0.067-0.211 0.115-0.303l-0.004 0.008c-0.044 0.086-0.088 0.158-0.137 0.227l0.004-0.006c-0.922 1.057-2.589 0.195-3.873 0.675 0.109-0.1 0.229-0.19 0.358-0.269l0.010-0.006c0.902-0.645 3.388-1.308 3.756-1.436 0.431-0.177 0.804-0.387 1.145-0.636l-0.015 0.011c0.136-0.090 0.367-0.234 0.444-0.382-0.173 0.027-0.234 0.032-0.342 0.044-0.042 0.004-0.091 0.006-0.14 0.006-0.083 0-0.165-0.006-0.245-0.017l0.009 0.001c-1.085-0.117-0.474-0.812 0.186-1.042 0.495-0.182 0.923-0.414 1.31-0.698l-0.015 0.010c0.068-0.048 0.136-0.093 0.204-0.144 1.019-0.757 2.032-1.835 2.137-3.193v-0.325c-0.031 0.104-0.064 0.19-0.103 0.274l0.005-0.012c-0.534 0.884-1.402 1.123-2.358 1.386z"></path></svg>